<mxfile host="Electron" modified="2024-02-06T05:07:51.993Z" agent="Mozilla/5.0 (X11; Linux x86_64) AppleWebKit/537.36 (KHTML, like Gecko) draw.io/22.1.21 Chrome/120.0.6099.109 Electron/28.1.0 Safari/537.36" etag="qhbaealBaS1l4yw51G8q" version="22.1.21" type="device">
  <diagram name="PÃ¡gina-1" id="KCZHRsNFGOOAUEGrP5nl">
    <mxGraphModel dx="1434" dy="907" grid="1" gridSize="10" guides="1" tooltips="1" connect="1" arrows="1" fold="1" page="1" pageScale="1" pageWidth="827" pageHeight="1169" math="0" shadow="0">
      <root>
        <mxCell id="0" />
        <mxCell id="1" parent="0" />
        <mxCell id="8vS-f6j0tsZiRI6oT4Nr-5" value="" style="group;fillColor=#232136;strokeColor=#232136;strokeWidth=30;" parent="1" vertex="1" connectable="0">
          <mxGeometry x="100" y="100" width="1031" height="520" as="geometry" />
        </mxCell>
        <mxCell id="fbPeKxcQVnnoHxMoIqsi-6" value="Others" style="swimlane;strokeWidth=3;rounded=1;fontStyle=0;strokeColor=#DB918D;fillColor=none;fontColor=#FFFFFF;container=0;labelBackgroundColor=none;" parent="8vS-f6j0tsZiRI6oT4Nr-5" vertex="1">
          <mxGeometry x="327" width="100" height="40" as="geometry" />
        </mxCell>
        <mxCell id="fbPeKxcQVnnoHxMoIqsi-7" value="Storage" style="swimlane;strokeWidth=3;rounded=1;fontStyle=0;strokeColor=#DB918D;fillColor=none;fontColor=#FFFFFF;container=0;labelBackgroundColor=none;" parent="8vS-f6j0tsZiRI6oT4Nr-5" vertex="1">
          <mxGeometry x="487" width="100" height="40" as="geometry" />
        </mxCell>
        <mxCell id="fbPeKxcQVnnoHxMoIqsi-8" value="Comunication" style="swimlane;strokeWidth=3;rounded=1;fontStyle=0;strokeColor=#DB918D;fillColor=none;fontColor=#FFFFFF;container=0;labelBackgroundColor=none;" parent="8vS-f6j0tsZiRI6oT4Nr-5" vertex="1">
          <mxGeometry x="627" width="100" height="40" as="geometry" />
        </mxCell>
        <mxCell id="fbPeKxcQVnnoHxMoIqsi-78" style="edgeStyle=orthogonalEdgeStyle;shape=connector;curved=0;rounded=1;orthogonalLoop=1;jettySize=auto;html=1;labelBackgroundColor=none;strokeColor=#DB918D;strokeWidth=3;align=center;verticalAlign=middle;fontFamily=Helvetica;fontSize=11;fontColor=#FFFFFF;endArrow=blockThin;endFill=0;endSize=12;" parent="8vS-f6j0tsZiRI6oT4Nr-5" source="fbPeKxcQVnnoHxMoIqsi-12" edge="1">
          <mxGeometry relative="1" as="geometry">
            <mxPoint x="587" y="136" as="targetPoint" />
            <Array as="points">
              <mxPoint x="697" y="100" />
              <mxPoint x="697" y="136" />
            </Array>
            <mxPoint x="787" y="56" as="sourcePoint" />
          </mxGeometry>
        </mxCell>
        <mxCell id="fbPeKxcQVnnoHxMoIqsi-12" value="Sensor" style="swimlane;strokeWidth=3;rounded=1;fontStyle=0;strokeColor=#DB918D;fillColor=none;fontColor=#FFFFFF;container=0;labelBackgroundColor=none;" parent="8vS-f6j0tsZiRI6oT4Nr-5" vertex="1">
          <mxGeometry x="797" y="80" width="100" height="40" as="geometry" />
        </mxCell>
        <mxCell id="8vS-f6j0tsZiRI6oT4Nr-2" style="edgeStyle=orthogonalEdgeStyle;shape=connector;curved=0;rounded=1;orthogonalLoop=1;jettySize=auto;html=1;exitX=0;exitY=0.5;exitDx=0;exitDy=0;labelBackgroundColor=none;strokeColor=#DB918D;strokeWidth=3;align=center;verticalAlign=middle;fontFamily=Helvetica;fontSize=11;fontColor=#FFFFFF;endArrow=blockThin;endFill=0;endSize=12;" parent="8vS-f6j0tsZiRI6oT4Nr-5" source="fbPeKxcQVnnoHxMoIqsi-13" edge="1">
          <mxGeometry relative="1" as="geometry">
            <mxPoint x="586.9999999999998" y="150.8965517241379" as="targetPoint" />
          </mxGeometry>
        </mxCell>
        <mxCell id="fbPeKxcQVnnoHxMoIqsi-13" value="Actuator" style="swimlane;strokeWidth=3;rounded=1;fontStyle=0;strokeColor=#DB918D;fillColor=none;fontColor=#FFFFFF;container=0;labelBackgroundColor=none;" parent="8vS-f6j0tsZiRI6oT4Nr-5" vertex="1">
          <mxGeometry x="797" y="131" width="100" height="40" as="geometry" />
        </mxCell>
        <mxCell id="fbPeKxcQVnnoHxMoIqsi-16" value="Admin Service" style="swimlane;strokeWidth=3;rounded=1;fontStyle=0;strokeColor=#DB918D;fillColor=none;fontColor=#FFFFFF;container=0;labelBackgroundColor=none;" parent="8vS-f6j0tsZiRI6oT4Nr-5" vertex="1">
          <mxGeometry y="215" width="100" height="40" as="geometry" />
        </mxCell>
        <mxCell id="fbPeKxcQVnnoHxMoIqsi-19" value="App Service" style="swimlane;strokeWidth=3;rounded=1;fontStyle=0;strokeColor=#DB918D;fillColor=none;fontColor=#FFFFFF;container=0;labelBackgroundColor=none;" parent="8vS-f6j0tsZiRI6oT4Nr-5" vertex="1">
          <mxGeometry y="280" width="100" height="40" as="geometry" />
        </mxCell>
        <mxCell id="fbPeKxcQVnnoHxMoIqsi-22" value="Data Service" style="swimlane;strokeWidth=3;rounded=1;fontStyle=0;strokeColor=#DB918D;fillColor=none;fontColor=#FFFFFF;container=0;labelBackgroundColor=none;" parent="8vS-f6j0tsZiRI6oT4Nr-5" vertex="1">
          <mxGeometry y="360" width="100" height="40" as="geometry" />
        </mxCell>
        <mxCell id="fbPeKxcQVnnoHxMoIqsi-23" value="Other Service" style="swimlane;strokeWidth=3;rounded=1;fontStyle=0;strokeColor=#DB918D;fillColor=none;fontColor=#FFFFFF;container=0;labelBackgroundColor=none;" parent="8vS-f6j0tsZiRI6oT4Nr-5" vertex="1">
          <mxGeometry y="445" width="100" height="40" as="geometry" />
        </mxCell>
        <mxCell id="fbPeKxcQVnnoHxMoIqsi-29" value="Aplication" style="swimlane;strokeWidth=3;rounded=1;fontStyle=0;strokeColor=#DB918D;fillColor=none;fontColor=#FFFFFF;container=0;labelBackgroundColor=none;" parent="8vS-f6j0tsZiRI6oT4Nr-5" vertex="1">
          <mxGeometry x="248" y="435" width="100" height="60" as="geometry">
            <mxRectangle x="580" y="270" width="80" height="30" as="alternateBounds" />
          </mxGeometry>
        </mxCell>
        <mxCell id="fbPeKxcQVnnoHxMoIqsi-86" value="USES" style="text;html=1;strokeColor=none;fillColor=none;align=center;verticalAlign=middle;whiteSpace=wrap;rounded=0;fontSize=12;fontFamily=Helvetica;fontColor=#FFFFFF;container=0;labelBackgroundColor=none;" parent="8vS-f6j0tsZiRI6oT4Nr-5" vertex="1">
          <mxGeometry x="410" y="124" width="60" height="30" as="geometry" />
        </mxCell>
        <mxCell id="fbPeKxcQVnnoHxMoIqsi-100" style="edgeStyle=orthogonalEdgeStyle;shape=connector;curved=0;rounded=1;orthogonalLoop=1;jettySize=auto;html=1;labelBackgroundColor=none;strokeColor=#DB918D;strokeWidth=3;align=center;verticalAlign=middle;fontFamily=Helvetica;fontSize=11;fontColor=#FFFFFF;endArrow=open;endFill=0;endSize=12;" parent="8vS-f6j0tsZiRI6oT4Nr-5" edge="1">
          <mxGeometry relative="1" as="geometry">
            <mxPoint x="347" y="320" as="sourcePoint" />
            <mxPoint x="477" y="320" as="targetPoint" />
          </mxGeometry>
        </mxCell>
        <mxCell id="fbPeKxcQVnnoHxMoIqsi-101" value="GET" style="edgeLabel;html=1;align=center;verticalAlign=middle;resizable=0;points=[];fontSize=11;fontFamily=Helvetica;fontColor=#FFFFFF;container=0;labelBackgroundColor=none;" parent="fbPeKxcQVnnoHxMoIqsi-100" vertex="1" connectable="0">
          <mxGeometry x="-0.0274" y="-1" relative="1" as="geometry">
            <mxPoint y="-11" as="offset" />
          </mxGeometry>
        </mxCell>
        <mxCell id="KpJvDtPZwzSK3RjMsNet-6" style="edgeStyle=orthogonalEdgeStyle;shape=connector;curved=0;rounded=1;orthogonalLoop=1;jettySize=auto;html=1;labelBackgroundColor=none;strokeColor=#DB918D;strokeWidth=3;align=center;verticalAlign=middle;fontFamily=Helvetica;fontSize=11;fontColor=#FFFFFF;endArrow=open;endFill=0;endSize=12;" parent="8vS-f6j0tsZiRI6oT4Nr-5" edge="1">
          <mxGeometry relative="1" as="geometry">
            <mxPoint x="587" y="170" as="sourcePoint" />
            <mxPoint x="927" y="210" as="targetPoint" />
            <Array as="points">
              <mxPoint x="587" y="170" />
              <mxPoint x="757" y="170" />
              <mxPoint x="757" y="190" />
              <mxPoint x="897" y="190" />
              <mxPoint x="897" y="210" />
            </Array>
          </mxGeometry>
        </mxCell>
        <mxCell id="KpJvDtPZwzSK3RjMsNet-7" value="DESCRIBE BY" style="edgeLabel;html=1;align=center;verticalAlign=middle;resizable=0;points=[];fontSize=11;fontFamily=Helvetica;fontColor=#FFFFFF;container=0;labelBackgroundColor=none;" parent="KpJvDtPZwzSK3RjMsNet-6" vertex="1" connectable="0">
          <mxGeometry x="0.4579" relative="1" as="geometry">
            <mxPoint y="8" as="offset" />
          </mxGeometry>
        </mxCell>
        <mxCell id="KpJvDtPZwzSK3RjMsNet-14" style="edgeStyle=orthogonalEdgeStyle;shape=connector;curved=0;rounded=1;orthogonalLoop=1;jettySize=auto;html=1;exitX=0;exitY=1;exitDx=0;exitDy=0;entryX=0.5;entryY=1;entryDx=0;entryDy=0;labelBackgroundColor=none;strokeColor=#DB918D;strokeWidth=3;align=center;verticalAlign=middle;fontFamily=Helvetica;fontSize=11;fontColor=#FFFFFF;endArrow=diamondThin;endFill=0;jumpSize=5;endSize=12;" parent="8vS-f6j0tsZiRI6oT4Nr-5" source="fbPeKxcQVnnoHxMoIqsi-59" target="fbPeKxcQVnnoHxMoIqsi-29" edge="1">
          <mxGeometry relative="1" as="geometry">
            <Array as="points">
              <mxPoint x="667" y="340" />
              <mxPoint x="667" y="520" />
              <mxPoint x="297" y="520" />
              <mxPoint x="297" y="510" />
              <mxPoint x="298" y="510" />
            </Array>
          </mxGeometry>
        </mxCell>
        <mxCell id="KpJvDtPZwzSK3RjMsNet-15" value="GROUP" style="edgeLabel;html=1;align=center;verticalAlign=middle;resizable=0;points=[];fontSize=11;fontFamily=Helvetica;fontColor=#FFFFFF;container=0;labelBackgroundColor=none;" parent="KpJvDtPZwzSK3RjMsNet-14" vertex="1" connectable="0">
          <mxGeometry x="-0.0033" y="2" relative="1" as="geometry">
            <mxPoint x="20" y="-12" as="offset" />
          </mxGeometry>
        </mxCell>
        <mxCell id="KpJvDtPZwzSK3RjMsNet-11" style="edgeStyle=orthogonalEdgeStyle;shape=connector;curved=0;rounded=1;orthogonalLoop=1;jettySize=auto;html=1;exitX=1;exitY=0.5;exitDx=0;exitDy=0;labelBackgroundColor=none;strokeColor=#DB918D;strokeWidth=3;align=center;verticalAlign=middle;fontFamily=Helvetica;fontSize=11;fontColor=#FFFFFF;endArrow=diamondThin;endFill=1;endSize=12;" parent="8vS-f6j0tsZiRI6oT4Nr-5" source="fbPeKxcQVnnoHxMoIqsi-58" edge="1">
          <mxGeometry relative="1" as="geometry">
            <mxPoint x="837" y="350.1851738823785" as="targetPoint" />
            <Array as="points">
              <mxPoint x="947" y="320" />
              <mxPoint x="947" y="380" />
              <mxPoint x="837" y="380" />
            </Array>
          </mxGeometry>
        </mxCell>
        <mxCell id="KpJvDtPZwzSK3RjMsNet-12" value="CONTAINS/USES" style="edgeLabel;html=1;align=center;verticalAlign=middle;resizable=0;points=[];fontSize=11;fontFamily=Helvetica;fontColor=#FFFFFF;container=0;labelBackgroundColor=none;" parent="KpJvDtPZwzSK3RjMsNet-11" vertex="1" connectable="0">
          <mxGeometry x="0.179" y="-2" relative="1" as="geometry">
            <mxPoint x="-26" y="12" as="offset" />
          </mxGeometry>
        </mxCell>
        <mxCell id="fbPeKxcQVnnoHxMoIqsi-58" value="Device" style="swimlane;strokeWidth=3;rounded=1;fontStyle=0;strokeColor=#DB918D;fillColor=none;fontColor=#FFFFFF;startSize=23;container=0;labelBackgroundColor=none;" parent="8vS-f6j0tsZiRI6oT4Nr-5" vertex="1">
          <mxGeometry x="767" y="290" width="100" height="60" as="geometry">
            <mxRectangle x="580" y="270" width="80" height="30" as="alternateBounds" />
          </mxGeometry>
        </mxCell>
        <mxCell id="fbPeKxcQVnnoHxMoIqsi-59" value="id: UUID" style="text;html=1;strokeColor=none;fillColor=none;align=center;verticalAlign=middle;whiteSpace=wrap;rounded=0;container=0;fontColor=#FFFFFF;labelBackgroundColor=none;" parent="8vS-f6j0tsZiRI6oT4Nr-5" vertex="1">
          <mxGeometry x="767" y="310" width="60" height="30" as="geometry" />
        </mxCell>
        <mxCell id="fbPeKxcQVnnoHxMoIqsi-9" value="Resource" style="swimlane;strokeWidth=3;rounded=1;fontStyle=0;strokeColor=#DB918D;fillColor=none;fontColor=#FFFFFF;container=0;labelBackgroundColor=none;" parent="8vS-f6j0tsZiRI6oT4Nr-5" vertex="1">
          <mxGeometry x="487" y="116" width="100" height="60" as="geometry">
            <mxRectangle x="580" y="270" width="80" height="30" as="alternateBounds" />
          </mxGeometry>
        </mxCell>
        <mxCell id="fbPeKxcQVnnoHxMoIqsi-70" style="edgeStyle=orthogonalEdgeStyle;rounded=1;orthogonalLoop=1;jettySize=auto;html=1;entryX=0.5;entryY=0;entryDx=0;entryDy=0;fontColor=#FFFFFF;curved=0;strokeWidth=3;strokeColor=#DB918D;endArrow=blockThin;endFill=0;endSize=12;labelBackgroundColor=none;" parent="8vS-f6j0tsZiRI6oT4Nr-5" source="fbPeKxcQVnnoHxMoIqsi-6" target="fbPeKxcQVnnoHxMoIqsi-9" edge="1">
          <mxGeometry relative="1" as="geometry">
            <Array as="points">
              <mxPoint x="377" y="80" />
              <mxPoint x="537" y="80" />
            </Array>
          </mxGeometry>
        </mxCell>
        <mxCell id="fbPeKxcQVnnoHxMoIqsi-73" style="edgeStyle=orthogonalEdgeStyle;shape=connector;curved=0;rounded=1;orthogonalLoop=1;jettySize=auto;html=1;entryX=0.5;entryY=0;entryDx=0;entryDy=0;labelBackgroundColor=none;strokeColor=#DB918D;strokeWidth=3;align=center;verticalAlign=middle;fontFamily=Helvetica;fontSize=11;fontColor=#FFFFFF;endArrow=blockThin;endFill=0;endSize=12;" parent="8vS-f6j0tsZiRI6oT4Nr-5" source="fbPeKxcQVnnoHxMoIqsi-7" target="fbPeKxcQVnnoHxMoIqsi-9" edge="1">
          <mxGeometry relative="1" as="geometry" />
        </mxCell>
        <mxCell id="fbPeKxcQVnnoHxMoIqsi-74" style="edgeStyle=orthogonalEdgeStyle;shape=connector;curved=0;rounded=1;orthogonalLoop=1;jettySize=auto;html=1;entryX=0.5;entryY=0;entryDx=0;entryDy=0;labelBackgroundColor=none;strokeColor=#DB918D;strokeWidth=3;align=center;verticalAlign=middle;fontFamily=Helvetica;fontSize=11;fontColor=#FFFFFF;endArrow=blockThin;endFill=0;exitX=0.5;exitY=1;exitDx=0;exitDy=0;endSize=12;" parent="8vS-f6j0tsZiRI6oT4Nr-5" source="fbPeKxcQVnnoHxMoIqsi-8" target="fbPeKxcQVnnoHxMoIqsi-9" edge="1">
          <mxGeometry relative="1" as="geometry">
            <Array as="points">
              <mxPoint x="677" y="80" />
              <mxPoint x="537" y="80" />
            </Array>
          </mxGeometry>
        </mxCell>
        <mxCell id="KpJvDtPZwzSK3RjMsNet-2" style="edgeStyle=orthogonalEdgeStyle;shape=connector;curved=0;rounded=1;orthogonalLoop=1;jettySize=auto;html=1;exitX=0.75;exitY=1;exitDx=0;exitDy=0;labelBackgroundColor=none;strokeColor=#DB918D;strokeWidth=3;align=center;verticalAlign=middle;fontFamily=Helvetica;fontSize=11;fontColor=#FFFFFF;endArrow=diamondThin;endFill=0;endSize=12;" parent="8vS-f6j0tsZiRI6oT4Nr-5" source="fbPeKxcQVnnoHxMoIqsi-9" target="fbPeKxcQVnnoHxMoIqsi-58" edge="1">
          <mxGeometry relative="1" as="geometry">
            <Array as="points">
              <mxPoint x="562" y="220" />
              <mxPoint x="817" y="220" />
            </Array>
          </mxGeometry>
        </mxCell>
        <mxCell id="KpJvDtPZwzSK3RjMsNet-3" value="HAS" style="edgeLabel;html=1;align=center;verticalAlign=middle;resizable=0;points=[];fontSize=11;fontFamily=Helvetica;fontColor=#FFFFFF;container=0;labelBackgroundColor=none;" parent="KpJvDtPZwzSK3RjMsNet-2" vertex="1" connectable="0">
          <mxGeometry x="0.0162" y="-1" relative="1" as="geometry">
            <mxPoint y="-10" as="offset" />
          </mxGeometry>
        </mxCell>
        <mxCell id="fbPeKxcQVnnoHxMoIqsi-80" style="edgeStyle=orthogonalEdgeStyle;shape=connector;curved=0;rounded=1;orthogonalLoop=1;jettySize=auto;html=1;entryX=0.281;entryY=0.019;entryDx=0;entryDy=0;labelBackgroundColor=none;strokeColor=#DB918D;strokeWidth=3;align=center;verticalAlign=middle;fontFamily=Helvetica;fontSize=11;fontColor=#FFFFFF;endArrow=open;endFill=0;entryPerimeter=0;endSize=12;" parent="8vS-f6j0tsZiRI6oT4Nr-5" edge="1">
          <mxGeometry relative="1" as="geometry">
            <mxPoint x="487" y="150" as="sourcePoint" />
            <mxPoint x="515.1" y="116.14000000000001" as="targetPoint" />
            <Array as="points">
              <mxPoint x="407" y="150" />
              <mxPoint x="407" y="90" />
              <mxPoint x="515" y="90" />
            </Array>
          </mxGeometry>
        </mxCell>
        <mxCell id="fbPeKxcQVnnoHxMoIqsi-10" value="id: UUID" style="text;html=1;strokeColor=none;fillColor=none;align=center;verticalAlign=middle;whiteSpace=wrap;rounded=0;container=0;fontColor=#FFFFFF;labelBackgroundColor=none;" parent="8vS-f6j0tsZiRI6oT4Nr-5" vertex="1">
          <mxGeometry x="487" y="136" width="60" height="30" as="geometry" />
        </mxCell>
        <mxCell id="fbPeKxcQVnnoHxMoIqsi-25" value="Service" style="swimlane;strokeWidth=3;rounded=1;fontStyle=0;strokeColor=#DB918D;fillColor=none;fontColor=#FFFFFF;container=0;labelBackgroundColor=none;" parent="8vS-f6j0tsZiRI6oT4Nr-5" vertex="1">
          <mxGeometry x="248" y="290" width="100" height="60" as="geometry">
            <mxRectangle x="580" y="270" width="80" height="30" as="alternateBounds" />
          </mxGeometry>
        </mxCell>
        <mxCell id="fbPeKxcQVnnoHxMoIqsi-91" style="edgeStyle=orthogonalEdgeStyle;shape=connector;curved=0;rounded=1;orthogonalLoop=1;jettySize=auto;html=1;entryX=0;entryY=0.75;entryDx=0;entryDy=0;labelBackgroundColor=none;strokeColor=#DB918D;strokeWidth=3;align=center;verticalAlign=middle;fontFamily=Helvetica;fontSize=11;fontColor=#FFFFFF;endArrow=blockThin;endFill=0;endSize=12;" parent="8vS-f6j0tsZiRI6oT4Nr-5" source="fbPeKxcQVnnoHxMoIqsi-16" target="fbPeKxcQVnnoHxMoIqsi-25" edge="1">
          <mxGeometry relative="1" as="geometry" />
        </mxCell>
        <mxCell id="fbPeKxcQVnnoHxMoIqsi-92" style="edgeStyle=orthogonalEdgeStyle;shape=connector;curved=0;rounded=1;orthogonalLoop=1;jettySize=auto;html=1;entryX=0;entryY=0.75;entryDx=0;entryDy=0;labelBackgroundColor=none;strokeColor=#DB918D;strokeWidth=3;align=center;verticalAlign=middle;fontFamily=Helvetica;fontSize=11;fontColor=#FFFFFF;endArrow=blockThin;endFill=0;endSize=12;" parent="8vS-f6j0tsZiRI6oT4Nr-5" source="fbPeKxcQVnnoHxMoIqsi-19" target="fbPeKxcQVnnoHxMoIqsi-25" edge="1">
          <mxGeometry relative="1" as="geometry" />
        </mxCell>
        <mxCell id="fbPeKxcQVnnoHxMoIqsi-94" style="edgeStyle=orthogonalEdgeStyle;shape=connector;curved=0;rounded=1;orthogonalLoop=1;jettySize=auto;html=1;entryX=0;entryY=0.75;entryDx=0;entryDy=0;labelBackgroundColor=none;strokeColor=#DB918D;strokeWidth=3;align=center;verticalAlign=middle;fontFamily=Helvetica;fontSize=11;fontColor=#FFFFFF;endArrow=blockThin;endFill=0;endSize=12;" parent="8vS-f6j0tsZiRI6oT4Nr-5" source="fbPeKxcQVnnoHxMoIqsi-22" target="fbPeKxcQVnnoHxMoIqsi-25" edge="1">
          <mxGeometry relative="1" as="geometry" />
        </mxCell>
        <mxCell id="fbPeKxcQVnnoHxMoIqsi-95" style="edgeStyle=orthogonalEdgeStyle;shape=connector;curved=0;rounded=1;orthogonalLoop=1;jettySize=auto;html=1;entryX=0;entryY=0.75;entryDx=0;entryDy=0;labelBackgroundColor=none;strokeColor=#DB918D;strokeWidth=3;align=center;verticalAlign=middle;fontFamily=Helvetica;fontSize=11;fontColor=#FFFFFF;endArrow=blockThin;endFill=0;endSize=12;" parent="8vS-f6j0tsZiRI6oT4Nr-5" source="fbPeKxcQVnnoHxMoIqsi-23" target="fbPeKxcQVnnoHxMoIqsi-25" edge="1">
          <mxGeometry relative="1" as="geometry">
            <Array as="points">
              <mxPoint x="168" y="465" />
              <mxPoint x="168" y="335" />
            </Array>
          </mxGeometry>
        </mxCell>
        <mxCell id="fbPeKxcQVnnoHxMoIqsi-96" style="edgeStyle=orthogonalEdgeStyle;shape=connector;curved=0;rounded=1;orthogonalLoop=1;jettySize=auto;html=1;entryX=0.5;entryY=1;entryDx=0;entryDy=0;labelBackgroundColor=none;strokeColor=#DB918D;strokeWidth=3;align=center;verticalAlign=middle;fontFamily=Helvetica;fontSize=11;fontColor=#FFFFFF;endArrow=open;endFill=0;endSize=12;" parent="8vS-f6j0tsZiRI6oT4Nr-5" source="fbPeKxcQVnnoHxMoIqsi-29" target="fbPeKxcQVnnoHxMoIqsi-25" edge="1">
          <mxGeometry relative="1" as="geometry" />
        </mxCell>
        <mxCell id="fbPeKxcQVnnoHxMoIqsi-97" value="EMPLOY" style="edgeLabel;html=1;align=center;verticalAlign=middle;resizable=0;points=[];fontSize=11;fontFamily=Helvetica;fontColor=#FFFFFF;container=0;labelBackgroundColor=none;" parent="fbPeKxcQVnnoHxMoIqsi-96" vertex="1" connectable="0">
          <mxGeometry x="-0.2361" y="1" relative="1" as="geometry">
            <mxPoint as="offset" />
          </mxGeometry>
        </mxCell>
        <mxCell id="KpJvDtPZwzSK3RjMsNet-16" style="edgeStyle=orthogonalEdgeStyle;shape=connector;curved=0;rounded=1;orthogonalLoop=1;jettySize=auto;html=1;exitX=0.75;exitY=0;exitDx=0;exitDy=0;entryX=0.25;entryY=0;entryDx=0;entryDy=0;labelBackgroundColor=none;strokeColor=#DB918D;strokeWidth=3;align=center;verticalAlign=middle;fontFamily=Helvetica;fontSize=11;fontColor=#FFFFFF;endArrow=open;endFill=0;endSize=12;" parent="8vS-f6j0tsZiRI6oT4Nr-5" source="fbPeKxcQVnnoHxMoIqsi-25" target="fbPeKxcQVnnoHxMoIqsi-58" edge="1">
          <mxGeometry relative="1" as="geometry">
            <Array as="points">
              <mxPoint x="322" y="240" />
              <mxPoint x="792" y="240" />
            </Array>
          </mxGeometry>
        </mxCell>
        <mxCell id="KpJvDtPZwzSK3RjMsNet-17" value="MANAGE" style="edgeLabel;html=1;align=center;verticalAlign=middle;resizable=0;points=[];fontSize=11;fontFamily=Helvetica;fontColor=#FFFFFF;container=0;labelBackgroundColor=none;" parent="KpJvDtPZwzSK3RjMsNet-16" vertex="1" connectable="0">
          <mxGeometry x="-0.056" relative="1" as="geometry">
            <mxPoint x="24" y="-8" as="offset" />
          </mxGeometry>
        </mxCell>
        <mxCell id="fbPeKxcQVnnoHxMoIqsi-87" style="edgeStyle=orthogonalEdgeStyle;shape=connector;curved=0;rounded=1;orthogonalLoop=1;jettySize=auto;html=1;labelBackgroundColor=none;strokeColor=#DB918D;strokeWidth=3;align=center;verticalAlign=middle;fontFamily=Helvetica;fontSize=11;fontColor=#FFFFFF;endArrow=diamondThin;endFill=0;exitX=0;exitY=0.75;exitDx=0;exitDy=0;endSize=12;" parent="8vS-f6j0tsZiRI6oT4Nr-5" source="fbPeKxcQVnnoHxMoIqsi-9" target="fbPeKxcQVnnoHxMoIqsi-25" edge="1">
          <mxGeometry relative="1" as="geometry">
            <Array as="points">
              <mxPoint x="417" y="161" />
              <mxPoint x="417" y="180" />
              <mxPoint x="297" y="180" />
            </Array>
          </mxGeometry>
        </mxCell>
        <mxCell id="fbPeKxcQVnnoHxMoIqsi-88" value="USES" style="edgeLabel;html=1;align=center;verticalAlign=middle;resizable=0;points=[];fontSize=11;fontFamily=Helvetica;fontColor=#FFFFFF;container=0;labelBackgroundColor=none;" parent="fbPeKxcQVnnoHxMoIqsi-87" vertex="1" connectable="0">
          <mxGeometry x="0.0867" y="1" relative="1" as="geometry">
            <mxPoint x="34" y="-10" as="offset" />
          </mxGeometry>
        </mxCell>
        <mxCell id="fbPeKxcQVnnoHxMoIqsi-26" value="&lt;font&gt;id: UUID&lt;/font&gt;" style="text;html=1;strokeColor=none;fillColor=none;align=center;verticalAlign=middle;whiteSpace=wrap;rounded=0;container=0;fontColor=#FFFFFF;labelBackgroundColor=none;" parent="8vS-f6j0tsZiRI6oT4Nr-5" vertex="1">
          <mxGeometry x="246" y="310" width="60" height="30" as="geometry" />
        </mxCell>
        <mxCell id="fbPeKxcQVnnoHxMoIqsi-89" style="edgeStyle=orthogonalEdgeStyle;shape=connector;curved=0;rounded=1;orthogonalLoop=1;jettySize=auto;html=1;exitX=0.25;exitY=0;exitDx=0;exitDy=0;entryX=0;entryY=0.25;entryDx=0;entryDy=0;labelBackgroundColor=none;strokeColor=#DB918D;strokeWidth=3;align=center;verticalAlign=middle;fontFamily=Helvetica;fontSize=11;fontColor=#FFFFFF;endArrow=open;endFill=0;endSize=12;" parent="8vS-f6j0tsZiRI6oT4Nr-5" source="fbPeKxcQVnnoHxMoIqsi-25" target="fbPeKxcQVnnoHxMoIqsi-25" edge="1">
          <mxGeometry relative="1" as="geometry">
            <Array as="points">
              <mxPoint x="273" y="270" />
              <mxPoint x="217" y="270" />
              <mxPoint x="217" y="305" />
            </Array>
          </mxGeometry>
        </mxCell>
        <mxCell id="fbPeKxcQVnnoHxMoIqsi-90" value="INVOKE" style="edgeLabel;html=1;align=center;verticalAlign=middle;resizable=0;points=[];fontSize=11;fontFamily=Helvetica;fontColor=#FFFFFF;container=0;labelBackgroundColor=none;" parent="fbPeKxcQVnnoHxMoIqsi-89" vertex="1" connectable="0">
          <mxGeometry x="0.1085" relative="1" as="geometry">
            <mxPoint x="25" y="-13" as="offset" />
          </mxGeometry>
        </mxCell>
        <mxCell id="fbPeKxcQVnnoHxMoIqsi-30" value="id: UUID&lt;br&gt;name: String" style="text;html=1;strokeColor=none;fillColor=none;align=left;verticalAlign=middle;whiteSpace=wrap;rounded=0;container=0;fontColor=#FFFFFF;labelBackgroundColor=none;" parent="8vS-f6j0tsZiRI6oT4Nr-5" vertex="1">
          <mxGeometry x="252" y="462" width="80" height="30" as="geometry" />
        </mxCell>
        <mxCell id="fbPeKxcQVnnoHxMoIqsi-40" value="&lt;&lt;Device data&gt;&gt;&#xa;Data" style="swimlane;strokeWidth=3;rounded=1;fontStyle=0;strokeColor=#DB918D;fillColor=none;fontColor=#FFFFFF;startSize=30;container=0;labelBackgroundColor=none;" parent="8vS-f6j0tsZiRI6oT4Nr-5" vertex="1">
          <mxGeometry x="477" y="290" width="120" height="60" as="geometry">
            <mxRectangle x="580" y="270" width="80" height="30" as="alternateBounds" />
          </mxGeometry>
        </mxCell>
        <mxCell id="fbPeKxcQVnnoHxMoIqsi-105" style="edgeStyle=orthogonalEdgeStyle;shape=connector;curved=0;rounded=1;orthogonalLoop=1;jettySize=auto;html=1;entryX=1;entryY=0.5;entryDx=0;entryDy=0;labelBackgroundColor=none;strokeColor=#DB918D;strokeWidth=3;align=center;verticalAlign=middle;fontFamily=Helvetica;fontSize=11;fontColor=#FFFFFF;endArrow=open;endFill=0;endSize=12;" parent="8vS-f6j0tsZiRI6oT4Nr-5" source="fbPeKxcQVnnoHxMoIqsi-58" target="fbPeKxcQVnnoHxMoIqsi-40" edge="1">
          <mxGeometry relative="1" as="geometry" />
        </mxCell>
        <mxCell id="fbPeKxcQVnnoHxMoIqsi-106" value="PRODUCES" style="edgeLabel;html=1;align=center;verticalAlign=middle;resizable=0;points=[];fontSize=11;fontFamily=Helvetica;fontColor=#FFFFFF;container=0;labelBackgroundColor=none;" parent="fbPeKxcQVnnoHxMoIqsi-105" vertex="1" connectable="0">
          <mxGeometry x="0.0009" y="1" relative="1" as="geometry">
            <mxPoint y="-8" as="offset" />
          </mxGeometry>
        </mxCell>
        <mxCell id="fbPeKxcQVnnoHxMoIqsi-107" style="edgeStyle=orthogonalEdgeStyle;shape=connector;curved=0;rounded=1;orthogonalLoop=1;jettySize=auto;html=1;exitX=0.75;exitY=0;exitDx=0;exitDy=0;entryX=0.036;entryY=0.014;entryDx=0;entryDy=0;labelBackgroundColor=none;strokeColor=#DB918D;strokeWidth=3;align=center;verticalAlign=middle;fontFamily=Helvetica;fontSize=11;fontColor=#FFFFFF;endArrow=open;endFill=0;entryPerimeter=0;endSize=12;" parent="8vS-f6j0tsZiRI6oT4Nr-5" source="fbPeKxcQVnnoHxMoIqsi-40" target="fbPeKxcQVnnoHxMoIqsi-58" edge="1">
          <mxGeometry relative="1" as="geometry">
            <Array as="points">
              <mxPoint x="567" y="260" />
              <mxPoint x="771" y="260" />
            </Array>
          </mxGeometry>
        </mxCell>
        <mxCell id="fbPeKxcQVnnoHxMoIqsi-108" value="CONSUME" style="edgeLabel;html=1;align=center;verticalAlign=middle;resizable=0;points=[];fontSize=11;fontFamily=Helvetica;fontColor=#FFFFFF;container=0;labelBackgroundColor=none;" parent="fbPeKxcQVnnoHxMoIqsi-107" vertex="1" connectable="0">
          <mxGeometry x="0.0938" y="1" relative="1" as="geometry">
            <mxPoint y="8" as="offset" />
          </mxGeometry>
        </mxCell>
        <mxCell id="fbPeKxcQVnnoHxMoIqsi-104" style="edgeStyle=orthogonalEdgeStyle;shape=connector;curved=0;rounded=1;orthogonalLoop=1;jettySize=auto;html=1;exitX=0.25;exitY=1;exitDx=0;exitDy=0;entryX=0.25;entryY=0;entryDx=0;entryDy=0;labelBackgroundColor=none;strokeColor=#DB918D;strokeWidth=3;align=center;verticalAlign=middle;fontFamily=Helvetica;fontSize=11;fontColor=#FFFFFF;endArrow=openThin;endFill=0;dashed=1;" parent="8vS-f6j0tsZiRI6oT4Nr-5" source="fbPeKxcQVnnoHxMoIqsi-9" target="fbPeKxcQVnnoHxMoIqsi-40" edge="1">
          <mxGeometry relative="1" as="geometry" />
        </mxCell>
        <mxCell id="fbPeKxcQVnnoHxMoIqsi-41" value="date:Time" style="text;html=1;strokeColor=none;fillColor=none;align=center;verticalAlign=middle;whiteSpace=wrap;rounded=0;container=0;fontColor=#FFFFFF;labelBackgroundColor=none;" parent="8vS-f6j0tsZiRI6oT4Nr-5" vertex="1">
          <mxGeometry x="477" y="315" width="72" height="30" as="geometry" />
        </mxCell>
        <mxCell id="fbPeKxcQVnnoHxMoIqsi-48" value="&lt;&lt;Context data&gt;&gt;&#xa;Topic" style="swimlane;strokeWidth=3;rounded=1;fontStyle=0;strokeColor=#DB918D;fillColor=none;fontColor=#FFFFFF;startSize=30;container=0;labelBackgroundColor=none;" parent="8vS-f6j0tsZiRI6oT4Nr-5" vertex="1">
          <mxGeometry x="477" y="435" width="120" height="60" as="geometry">
            <mxRectangle x="580" y="270" width="80" height="30" as="alternateBounds" />
          </mxGeometry>
        </mxCell>
        <mxCell id="fbPeKxcQVnnoHxMoIqsi-102" style="edgeStyle=orthogonalEdgeStyle;shape=connector;curved=0;rounded=1;orthogonalLoop=1;jettySize=auto;html=1;entryX=0.5;entryY=0;entryDx=0;entryDy=0;labelBackgroundColor=none;strokeColor=#DB918D;strokeWidth=3;align=center;verticalAlign=middle;fontFamily=Helvetica;fontSize=11;fontColor=#FFFFFF;endArrow=diamondThin;endFill=0;endSize=12;" parent="8vS-f6j0tsZiRI6oT4Nr-5" source="fbPeKxcQVnnoHxMoIqsi-40" target="fbPeKxcQVnnoHxMoIqsi-48" edge="1">
          <mxGeometry relative="1" as="geometry" />
        </mxCell>
        <mxCell id="fbPeKxcQVnnoHxMoIqsi-103" value="REPRESENT" style="edgeLabel;html=1;align=center;verticalAlign=middle;resizable=0;points=[];fontSize=11;fontFamily=Helvetica;fontColor=#FFFFFF;container=0;labelBackgroundColor=none;" parent="fbPeKxcQVnnoHxMoIqsi-102" vertex="1" connectable="0">
          <mxGeometry x="-0.3121" y="1" relative="1" as="geometry">
            <mxPoint x="39" y="1" as="offset" />
          </mxGeometry>
        </mxCell>
        <mxCell id="fbPeKxcQVnnoHxMoIqsi-49" value="name: String" style="text;html=1;strokeColor=none;fillColor=none;align=center;verticalAlign=middle;whiteSpace=wrap;rounded=0;container=0;fontColor=#FFFFFF;labelBackgroundColor=none;" parent="8vS-f6j0tsZiRI6oT4Nr-5" vertex="1">
          <mxGeometry x="477" y="460" width="80" height="30" as="geometry" />
        </mxCell>
        <mxCell id="fbPeKxcQVnnoHxMoIqsi-62" value="Gateway" style="swimlane;strokeWidth=3;rounded=1;fontStyle=0;strokeColor=#DB918D;fillColor=none;fontColor=#FFFFFF;startSize=23;container=0;labelBackgroundColor=none;" parent="8vS-f6j0tsZiRI6oT4Nr-5" vertex="1">
          <mxGeometry x="767" y="430" width="100" height="60" as="geometry">
            <mxRectangle x="580" y="270" width="80" height="30" as="alternateBounds" />
          </mxGeometry>
        </mxCell>
        <mxCell id="KpJvDtPZwzSK3RjMsNet-13" style="edgeStyle=orthogonalEdgeStyle;shape=connector;curved=0;rounded=1;orthogonalLoop=1;jettySize=auto;html=1;exitX=0.5;exitY=0;exitDx=0;exitDy=0;entryX=0.5;entryY=1;entryDx=0;entryDy=0;labelBackgroundColor=none;strokeColor=#DB918D;strokeWidth=3;align=center;verticalAlign=middle;fontFamily=Helvetica;fontSize=11;fontColor=#FFFFFF;endArrow=blockThin;endFill=0;jumpSize=9;endSize=12;" parent="8vS-f6j0tsZiRI6oT4Nr-5" source="fbPeKxcQVnnoHxMoIqsi-62" target="fbPeKxcQVnnoHxMoIqsi-58" edge="1">
          <mxGeometry relative="1" as="geometry" />
        </mxCell>
        <mxCell id="fbPeKxcQVnnoHxMoIqsi-63" value="id: String" style="text;html=1;strokeColor=none;fillColor=none;align=center;verticalAlign=middle;whiteSpace=wrap;rounded=0;container=0;fontColor=#FFFFFF;labelBackgroundColor=none;" parent="8vS-f6j0tsZiRI6oT4Nr-5" vertex="1">
          <mxGeometry x="767" y="450" width="60" height="30" as="geometry" />
        </mxCell>
        <mxCell id="fbPeKxcQVnnoHxMoIqsi-66" value="Properties" style="swimlane;strokeWidth=3;rounded=1;fontStyle=0;strokeColor=#DB918D;fillColor=none;fontColor=#FFFFFF;startSize=23;container=0;labelBackgroundColor=none;" parent="8vS-f6j0tsZiRI6oT4Nr-5" vertex="1">
          <mxGeometry x="927" y="185" width="100" height="70" as="geometry">
            <mxRectangle x="580" y="270" width="80" height="30" as="alternateBounds" />
          </mxGeometry>
        </mxCell>
        <mxCell id="fbPeKxcQVnnoHxMoIqsi-67" value="id: Int&lt;br&gt;name: String&lt;br&gt;value: String" style="text;html=1;strokeColor=none;fillColor=none;align=left;verticalAlign=middle;whiteSpace=wrap;rounded=0;container=0;fontColor=#FFFFFF;labelBackgroundColor=none;" parent="8vS-f6j0tsZiRI6oT4Nr-5" vertex="1">
          <mxGeometry x="931" y="215" width="100" height="30" as="geometry" />
        </mxCell>
        <mxCell id="KpJvDtPZwzSK3RjMsNet-8" style="edgeStyle=orthogonalEdgeStyle;shape=connector;curved=0;rounded=1;orthogonalLoop=1;jettySize=auto;html=1;exitX=1;exitY=0.25;exitDx=0;exitDy=0;entryX=0.75;entryY=1;entryDx=0;entryDy=0;labelBackgroundColor=none;strokeColor=#DB918D;strokeWidth=3;align=center;verticalAlign=middle;fontFamily=Helvetica;fontSize=11;fontColor=#FFFFFF;endArrow=open;endFill=0;endSize=12;" parent="8vS-f6j0tsZiRI6oT4Nr-5" source="fbPeKxcQVnnoHxMoIqsi-58" target="fbPeKxcQVnnoHxMoIqsi-66" edge="1">
          <mxGeometry relative="1" as="geometry" />
        </mxCell>
        <mxCell id="KpJvDtPZwzSK3RjMsNet-9" value="DESCRIBE BY" style="edgeLabel;html=1;align=center;verticalAlign=middle;resizable=0;points=[];fontSize=11;fontFamily=Helvetica;fontColor=#FFFFFF;container=0;labelBackgroundColor=none;" parent="KpJvDtPZwzSK3RjMsNet-8" vertex="1" connectable="0">
          <mxGeometry x="-0.212" relative="1" as="geometry">
            <mxPoint x="-2" y="-10" as="offset" />
          </mxGeometry>
        </mxCell>
      </root>
    </mxGraphModel>
  </diagram>
</mxfile>
